<svg xmlns="http://www.w3.org/2000/svg" id="Group_6324" data-name="Group 6324" viewBox="0 0 140.4 140.4">
    <defs>
        <style>
            .cls-1{fill:#276ef1}.cls-2{fill:#9cc0ff}.cls-3{fill:none;stroke:#fff;stroke-miterlimit:10;stroke-width:3px}
        </style>
    </defs>
    <g id="Group_6324-2" data-name="Group 6324">
        <circle id="Ellipse_1252" cx="70.2" cy="70.2" r="70.2" class="cls-1" data-name="Ellipse 1252"/>
    </g>
    <g id="Group_6328" data-name="Group 6328">
        <g id="Group_6327" data-name="Group 6327">
            <g id="Group_6326" data-name="Group 6326">
                <g id="Group_6325" data-name="Group 6325">
                    <path id="Path_7778" d="M88 51.8a5.392 5.392 0 0 0 8.1.5 5.654 5.654 0 0 0 1.6-3.6 2.344 2.344 0 0 1 1.1-1.8 2.145 2.145 0 0 1 2.5.4l9.5 9.5-27 27-27-27 9.6-9.6a2.121 2.121 0 0 0 .4-2.5 1 1 0 0 0-.4-.5 1.816 1.816 0 0 0-1.4-.6 5.187 5.187 0 0 1-3.6-1.6 5.407 5.407 0 0 1 7-8.2 5.1 5.1 0 0 1 2.2 3.9 2.256 2.256 0 0 0 1.3 1.7l.2.1a2.127 2.127 0 0 0 2.4-.4l9.3-9.3 9.5 9.5a2.127 2.127 0 0 1 .4 2.4l-.1.2a2.256 2.256 0 0 1-1.7 1.3 5.1 5.1 0 0 0-3.9 2.2 5.251 5.251 0 0 0 0 6.4z" class="cls-2" data-name="Path 7778"/>
                </g>
            </g>
        </g>
        <path id="Path_7779" d="M79.4 61.7a5.4 5.4 0 0 1 .1 6.5 5.1 5.1 0 0 1-3.9 2.2 2.256 2.256 0 0 0-1.7 1.3l-.1.2a2.127 2.127 0 0 0 .4 2.4l9.5 9.5-27 27-27-27 9.5-9.5a2.127 2.127 0 0 1 2.4-.4l.2.1a2.256 2.256 0 0 1 1.3 1.7 5.1 5.1 0 0 0 2.2 3.9 5.556 5.556 0 0 0 6.5-.1 5.392 5.392 0 0 0 .5-8.1 5.654 5.654 0 0 0-3.6-1.6 2.344 2.344 0 0 1-1.8-1.1 2.145 2.145 0 0 1 .4-2.5l9.5-9.5 9.5 9.5a2.121 2.121 0 0 0 2.5.4 1.889 1.889 0 0 0 1.1-1.8 5.329 5.329 0 0 1 9.5-3.1z" data-name="Path 7779"/>
        <path id="Path_7780" d="M56.7 56.7l9.5 9.5a2.121 2.121 0 0 0 2.5.4 1.889 1.889 0 0 0 1.1-1.8 5.187 5.187 0 0 1 1.6-3.6 5.407 5.407 0 0 1 8.2 7 5.1 5.1 0 0 1-3.9 2.2 2.256 2.256 0 0 0-1.7 1.3l-.1.2a2.127 2.127 0 0 0 .4 2.4l9.5 9.5" class="cls-3" data-name="Path 7780"/>
    </g>
</svg>
